HIERARCHY
ROOT Hips
{
  OFFSET 265.287 66.7526 -254.649
  CHANNELS 6 Xposition Yposition Zposition Zrotation Xrotation Yrotation
  JOINT LeftUpLeg
  {
    OFFSET 8.64259 1.95398 -2.38835
    CHANNELS 3 Zrotation Xrotation Yrotation
    JOINT LeftLeg
    {
      OFFSET 43.7702 0 0
      CHANNELS 3 Zrotation Xrotation Yrotation
      JOINT LeftFoot
      {
        OFFSET 40.6238 0 0
        CHANNELS 3 Zrotation Xrotation Yrotation
        JOINT LeftToeBase
        {
          OFFSET 12.7242 0 0
          CHANNELS 3 Zrotation Xrotation Yrotation
          End Site
          {
            OFFSET 0 0 0
          }
        }
      }
    }
  }
  JOINT RightUpLeg
  {
    OFFSET -8.2249 1.95398 -2.59336
    CHANNELS 3 Zrotation Xrotation Yrotation
    JOINT RightLeg
    {
      OFFSET 43.5653 0 0
      CHANNELS 3 Zrotation Xrotation Yrotation
      JOINT RightFoot
      {
        OFFSET 40.6238 0 0
        CHANNELS 3 Zrotation Xrotation Yrotation
        JOINT RightToeBase
        {
          OFFSET 12.7242 0 0
          CHANNELS 3 Zrotation Xrotation Yrotation
          End Site
          {
            OFFSET 0 0 0
          }
        }
      }
    }
  }
  JOINT Spine
  {
    OFFSET 0.165834 0.87714 6.61349
    CHANNELS 3 Zrotation Xrotation Yrotation
    JOINT Spine1
    {
      OFFSET 7.38963 1.71661e-005 0
      CHANNELS 3 Zrotation Xrotation Yrotation
      JOINT Spine2
      {
        OFFSET 11.9445 1.14441e-005 0
        CHANNELS 3 Zrotation Xrotation Yrotation
        JOINT Spine3
        {
          OFFSET 14.7254 4.19617e-005 0
          CHANNELS 3 Zrotation Xrotation Yrotation
          JOINT Spine4
          {
            OFFSET 10.9679 0 0
            CHANNELS 3 Zrotation Xrotation Yrotation
            JOINT RightShoulder
            {
              OFFSET 2.46616 -1.6653 3.69651
              CHANNELS 3 Zrotation Xrotation Yrotation
              JOINT RightArm
              {
                OFFSET 13.0012 0 0
                CHANNELS 3 Zrotation Xrotation Yrotation
                JOINT RightForeArm
                {
                  OFFSET 28.7848 1.52588e-005 0
                  CHANNELS 3 Zrotation Xrotation Yrotation
                  JOINT RightHand
                  {
                    OFFSET 26.5688 1.52588e-005 0
                    CHANNELS 3 Zrotation Xrotation Yrotation
                    End Site
                    {
                      OFFSET 0 0 0
                    }
                  }
                }
              }
            }
            JOINT LeftShoulder
            {
              OFFSET 2.38034 -1.29275 -3.7523
              CHANNELS 3 Zrotation Xrotation Yrotation
              JOINT LeftArm
              {
                OFFSET 16.3182 6.10351e-005 0
                CHANNELS 3 Zrotation Xrotation Yrotation
                JOINT LeftForeArm
                {
                  OFFSET 27.0901 0 0
                  CHANNELS 3 Zrotation Xrotation Yrotation
                  JOINT LeftHand
                  {
                    OFFSET 24.5451 1.52588e-005 0
                    CHANNELS 3 Zrotation Xrotation Yrotation
                    End Site
                    {
                      OFFSET 0 0 0
                    }
                  }
                }
              }
            }
            JOINT Neck
            {
              OFFSET 5.0226 -0.0266342 0
              CHANNELS 3 Zrotation Xrotation Yrotation
              JOINT Head
              {
                OFFSET 6.69364 2.86102e-005 0
                CHANNELS 3 Zrotation Xrotation Yrotation
                End Site
                {
                  OFFSET 0 0 0
                }
              }
            }
          }
        }
      }
    }
  }
}
MOTION
Frames:	6
Frame Time:	0.0416667
247.908 73.0821 -242.957 -0.228444 -79.7809 -11.9842 -157.32 47.8439 161.953 11.9653 61.4686 -134.339 85.3567 -24.972 64.6426 26.6718 30.3056 -101.196 171.61 75.5233 57.2502 -39.3589 -54.6703 8.247 67.3389 11.1939 -16.8528 126.188 45.2255 66.9542 -5.76926 0.0203594 -87.8965 27.2957 -9.7289 7.49572 15.6372 -9.3906 7.91679 -7.12465 -11.5262 4.20488 12.888 -11.5262 4.20487 106.125 -33.476 -74.4279 82.8968 -18.1412 115.666 -48.5538 51.7015 -98.3854 -5.30142 1.84032 -48.5695 -66.5845 -2.36532 133.617 -51.6105 56.7843 -58.7861 -13.7953 -28.5766 -0.0247342 0.756579 6.67255 126.01 -91.2655 -53.777 18.4484 89.5921 -65.7364 -21.815 
248.087 73.3012 -243.13 -0.2035 -79.8165 -11.9186 -157.482 46.4377 161.366 13.0127 59.8519 -133.953 83.6187 -26.2321 63.6064 26.8144 28.5782 -99.4248 169.998 75.1212 58.85 -38.472 -54.8404 7.99351 67.2158 11.6583 -16.9311 125.759 45.3932 67.4627 -5.76652 0.024548 -87.8906 27.287 -9.72078 7.50398 15.6284 -9.38214 7.92466 -7.13266 -11.521 4.21531 12.88 -11.521 4.21531 106.404 -33.869 -73.9337 82.1547 -19.0148 115.373 -48.2081 51.3137 -98.6148 -4.97753 1.69235 -48.1425 -66.6312 -2.31058 133.524 -50.9732 57.083 -59.2395 -13.9714 -29.0122 -0.0248378 0.618872 6.30051 125.499 -91.3244 -53.8834 18.4455 89.1492 -65.873 -22.1674 
248.611 73.7827 -243.644 -0.133839 -79.9195 -11.73 -158.275 42.4314 159.85 15.8031 55.4296 -132.608 77.8869 -29.3714 59.5919 27.9596 22.4836 -94.6072 166.147 74.0899 62.6555 -36.1607 -55.332 7.3006 66.8882 12.9587 -17.1332 124.647 45.8122 68.7823 -5.75846 0.0371756 -87.8735 27.2608 -9.69688 7.52815 15.6018 -9.3572 7.94771 -7.1569 -11.5054 4.24588 12.8557 -11.5055 4.24588 107.25 -35.0233 -72.4663 79.9551 -21.5264 114.424 -47.2493 50.1901 -99.2357 -3.98002 1.25532 -46.8825 -66.7661 -2.15226 133.252 -49.237 57.8681 -60.4807 -14.413 -30.5748 -0.0252287 0.160502 5.14752 124.002 -91.4986 -54.1853 18.4303 87.8884 -66.2565 -23.1756 
249.508 73.7385 -244.537 -0.0277537 -80.083 -11.4322 -160.616 36.392 158.131 19.2491 49.5282 -130.292 65.8745 -31.0818 49.6251 32.157 9.51952 -83.6474 162.775 73.5416 65.9048 -34.1239 -56.1413 6.47448 66.6371 14.6309 -17.4938 123.24 46.3157 70.456 -5.74522 0.0587882 -87.8455 27.2158 -9.65778 7.56745 15.5563 -9.31642 7.98517 -7.19859 -11.48 4.29567 12.8141 -11.48 4.29567 108.714 -36.9032 -70.0275 76.2865 -25.4365 112.6 -45.837 48.4105 -100.119 -2.2008 0.541999 -44.8015 -66.9796 -1.8997 132.819 -46.7045 58.9394 -62.3111 -14.9782 -33.9183 -0.0267533 -0.8048 2.99426 121.596 -91.7864 -54.643 18.3862 85.9501 -66.8287 -24.7414 
250.739 73.5315 -245.782 0.105931 -80.2986 -11.0402 -163.762 29.5211 154.506 21.9384 45.192 -125.979 47.1 -23.1315 34.2637 45.2074 -9.05907 -66.2748 158.771 72.802 69.7493 -31.3741 -57.0904 5.38965 66.1623 17.0059 -17.7181 121.931 46.7745 72.0351 -5.72709 0.0905605 -87.8068 27.1498 -9.60432 7.62136 15.4896 -9.26067 8.03659 -7.26001 -11.4452 4.36393 12.7526 -11.4452 4.36391 110.888 -39.4586 -66.6031 71.0243 -30.3894 109.529 -44.0862 46.0761 -101.187 0.544514 -0.414518 -41.8698 -67.2611 -1.56081 132.243 -43.5488 60.1507 -64.637 -15.6396 -39.6861 -0.0305684 -2.66677 -0.630752 118.463 -92.1889 -55.2036 18.2904 83.4898 -67.517 -26.7556 
252.277 73.3585 -247.374 0.258337 -80.5579 -10.5689 -168.301 23.5232 147.591 22.2957 46.8075 -119.242 34.3511 -4.05893 25.0096 71.325 -25.2834 -35.9889 153.935 71.234 74.421 -26.9181 -58.0126 3.98912 65.0786 20.427 -17.4533 120.973 47.1357 73.2374 -5.70473 0.133935 -87.7575 27.0599 -9.53812 7.68971 15.3988 -9.19154 8.10184 -7.34419 -11.4026 4.44995 12.6685 -11.4026 4.44996 113.889 -42.5984 -62.1818 63.8667 -35.8843 104.67 -41.9794 43.2917 -102.497 4.47652 -1.53133 -37.9904 -67.5998 -1.13914 131.546 -39.8052 61.4113 -67.4736 -16.5266 -47.8042 -0.037427 -5.85948 -6.06466 115.051 -92.7051 -55.8083 18.1229 80.6418 -68.2474 -29.1218 
